<svg width="399" height="167" viewBox="0 0 399 167" fill="none" xmlns="http://www.w3.org/2000/svg">
<g clip-path="url(#clip0_402_2)">
<g clip-path="url(#clip1_402_2)">
<path d="M176 120.7V134.5C172.7 137 168.8 138.2 164.8 138.2C158.7 138.2 153.9 135 151.5 129.6C147.6 135.7 142.2 138.2 135.7 138.2C120.8 138.2 111.8 126.1 111.8 111.7C111.8 97.7 120.8 85.4 135.7 85.4C141.1 85.4 146.1 87.2 149.8 91.7V86.5H167.9V118.6C167.9 121.1 169.7 122.3 171.7 122.3C173.3 122.2 174.7 121.7 176 120.7ZM149.8 116.9V106.4C148 102.6 144.5 100.2 140.2 100.2C134.1 100.2 129.7 105.1 129.7 111.6C129.7 118.2 134.1 123.1 140.2 123.1C144.4 123.1 148.1 120.7 149.8 116.9Z" fill="white"/>
<path d="M238.4 111.6C238.4 126 229.6 138.1 214.5 138.1C209.1 138.1 204.7 136.5 200.5 131.8V167.1H182.4V86.5H200.5V91.4C204.3 87 209.1 85.3 214.5 85.3C229.5 85.4 238.4 97.6 238.4 111.6ZM220.6 111.6C220.6 105.2 216.2 100.2 210 100.2C205.8 100.2 202.2 102.6 200.5 106.4V116.9C202.1 120.7 205.8 123.1 210 123.1C216.1 123.1 220.6 118.2 220.6 111.6Z" fill="white"/>
<path d="M304 120.7V134.5C300.7 137 296.9 138.2 292.8 138.2C284 138.2 277.9 131.6 277.9 121.4V106.2C277.9 102.7 276 100.3 272.6 100.3C269.3 100.3 266.8 102.8 266 106.5V136.9H248V86.5H266V91.7C269.7 87.2 274.6 85.4 279.4 85.4C289.8 85.4 295.9 92.6 295.9 102.8V118.6C295.9 121.1 297.7 122.3 299.7 122.3C301.4 122.2 302.8 121.7 304 120.7Z" fill="white"/>
<path d="M366.5 120.7V134.5C363.8 136.6 359.7 138.2 355.8 138.2C349.5 138.2 345.6 134.2 342.2 129.2C338 123.3 334.1 119 328.6 118.5V136.9H310.5V46.2H328.6V103.9H329.1C336.7 103.6 341 94.8 341 86.5H358.9C358.9 97.2 354.6 109.1 342.7 110.9C347.4 111.5 350.5 114.2 353.3 117.3C356.1 120.3 358.4 122.4 361.6 122.4C363.4 122.4 365 121.6 366.5 120.7Z" fill="white"/>
<path d="M369.8 66.8C369.8 60.2 375.1 54.8 381.8 54.8C388.4 54.8 393.7 60.2 393.7 66.8C393.7 73.4 388.4 78.9 381.8 78.9C375.1 78.9 369.8 73.4 369.8 66.8ZM387.8 138.2C379 138.2 372.9 131.6 372.9 121.4V86.5H390.8V118.6C390.8 121.1 392.7 122.3 394.6 122.3C396.4 122.3 397.8 121.8 399 120.8V134.6C395.6 137 391.9 138.2 387.8 138.2Z" fill="white"/>
<path d="M91.7001 22.2C78.8001 31 63.2001 36.2 46.4001 36.2C29.6001 36.2 14.0001 31.1 1.1001 22.2L3.8001 17.9C15.9001 26.2 30.6001 31.1 46.4001 31.1C62.2001 31.1 76.9001 26.2 89.0001 17.9L91.7001 22.2Z" fill="white"/>
<path d="M86.3 13.7C74.9 21.5 61.2 26.1 46.4 26.1C31.6 26.1 17.8 21.5 6.5 13.7L9.2 9.4C19.8 16.7 32.6 21 46.5 21C60.4 21 73.2 16.7 83.8 9.4L86.3 13.7Z" fill="white"/>
<path d="M80.9002 5.1C71.1002 11.9 59.2002 15.9 46.3002 15.9C33.5002 15.9 21.5002 11.9 11.7002 5.1L14.4002 0.800003C23.4002 7.1 34.4002 10.9 46.3002 10.9C58.2002 10.9 69.1002 7.2 78.2002 0.800003L80.9002 5.1Z" fill="white"/>
<path d="M81.6 91.6V136.9H76.6V91.6C76.6 74.9 63.1 61.4 46.4 61.4C29.7 61.4 16.2 74.9 16.2 91.6C16.2 108.3 29.7 121.8 46.4 121.8C55.4 121.8 63.4 117.9 68.9 111.7L69 118.6C62.9 123.7 55 126.8 46.3 126.8C26.8 126.8 11 111 11 91.5C11 72 26.8 56.2 46.3 56.2C65.8 56.2 81.6 72.1 81.6 91.6Z" fill="white"/>
<path d="M91.7001 91.6V136.9H86.7001V91.6C86.7001 69.3 68.7001 51.3 46.4001 51.3C24.1001 51.3 6.1001 69.3 6.1001 91.6C6.1001 113.9 24.1001 131.9 46.4001 131.9C54.8001 131.9 62.6001 129.3 69.1001 124.9V130.8C62.4001 134.7 54.7001 136.9 46.4001 136.9C21.4001 136.9 1.1001 116.6 1.1001 91.6C1.1001 66.6 21.4001 46.3 46.4001 46.3C71.4001 46.3 91.7001 66.5 91.7001 91.6Z" fill="white"/>
<path d="M46.3001 66.4C32.4001 66.4 21.1001 77.7 21.1001 91.6C21.1001 105.5 32.4001 116.8 46.3001 116.8C54.5001 116.8 61.9001 112.8 66.5001 106.7V136.9H71.5001V91.6C71.5001 77.6 60.3001 66.4 46.3001 66.4ZM46.3001 111.7C35.2001 111.7 26.1001 102.7 26.1001 91.5C26.1001 80.3 35.1001 71.3 46.3001 71.3C57.5001 71.3 66.5001 80.3 66.5001 91.5C66.5001 102.7 57.5001 111.7 46.3001 111.7Z" fill="white"/>
</g>
</g>
<defs>
<clipPath id="clip0_402_2">
<rect width="399" height="167" fill="white"/>
</clipPath>
<clipPath id="clip1_402_2">
<rect width="600" height="368" fill="white" transform="translate(-100 -100)"/>
</clipPath>
</defs>
</svg>
